<svg width="624" height="439" viewBox="0 0 624 439" fill="none" xmlns="http://www.w3.org/2000/svg">
<path d="M116.048 96.093V329.144H86.598V132.865L27.2209 154.514V127.93L111.431 96.093H116.048ZM348.781 266.424C348.781 280.538 345.491 292.531 338.911 302.4C332.438 312.164 323.629 319.593 312.486 324.687C301.449 329.781 288.979 332.328 275.077 332.328C261.175 332.328 248.651 329.781 237.509 324.687C226.365 319.593 217.557 312.164 211.083 302.4C204.609 292.531 201.373 280.538 201.373 266.424C201.373 257.191 203.123 248.754 206.626 241.113C210.234 233.366 215.275 226.627 221.749 220.896C228.328 215.165 236.075 210.761 244.99 207.683C254.011 204.5 263.933 202.908 274.759 202.908C288.979 202.908 301.661 205.667 312.804 211.185C323.948 216.598 332.703 224.08 339.07 233.631C345.544 243.182 348.781 254.113 348.781 266.424ZM319.172 265.787C319.172 257.191 317.315 249.603 313.6 243.023C309.886 236.337 304.686 231.137 298 227.423C291.314 223.709 283.567 221.851 274.759 221.851C265.737 221.851 257.937 223.709 251.358 227.423C244.884 231.137 239.843 236.337 236.235 243.023C232.626 249.603 230.822 257.191 230.822 265.787C230.822 274.702 232.574 282.343 236.075 288.71C239.684 294.971 244.778 299.8 251.358 303.197C258.044 306.486 265.95 308.131 275.077 308.131C284.204 308.131 292.056 306.486 298.637 303.197C305.216 299.8 310.257 294.971 313.759 288.71C317.368 282.343 319.172 274.702 319.172 265.787ZM343.368 157.698C343.368 168.947 340.397 179.083 334.454 188.104C328.511 197.124 320.392 204.234 310.098 209.435C299.804 214.635 288.13 217.235 275.077 217.235C261.811 217.235 249.978 214.635 239.578 209.435C229.283 204.234 221.218 197.124 215.381 188.104C209.544 179.083 206.626 168.947 206.626 157.698C206.626 144.221 209.544 132.759 215.381 123.314C221.324 113.869 229.443 106.652 239.737 101.664C250.031 96.6766 261.758 94.1826 274.918 94.1826C288.183 94.1826 299.963 96.6766 310.257 101.664C320.551 106.652 328.617 113.869 334.454 123.314C340.397 132.759 343.368 144.221 343.368 157.698ZM313.918 158.176C313.918 150.429 312.273 143.584 308.984 137.64C305.694 131.698 301.131 127.028 295.294 123.632C289.457 120.13 282.665 118.379 274.918 118.379C267.171 118.379 260.379 120.024 254.542 123.314C248.811 126.498 244.301 131.061 241.011 137.004C237.827 142.947 236.235 150.005 236.235 158.176C236.235 166.135 237.827 173.086 241.011 179.029C244.301 184.973 248.864 189.589 254.701 192.879C260.538 196.169 267.33 197.814 275.077 197.814C282.824 197.814 289.563 196.169 295.294 192.879C301.131 189.589 305.694 184.973 308.984 179.029C312.273 173.086 313.918 166.135 313.918 158.176ZM597.235 303.559C597.235 301.182 596.7 298.983 595.63 296.963C594.62 294.882 592.51 293.01 589.301 291.346C586.151 289.623 581.397 288.137 575.038 286.889C569.689 285.76 564.846 284.423 560.507 282.877C556.229 281.333 552.573 279.461 549.542 277.261C546.571 275.062 544.283 272.477 542.678 269.506C541.074 266.534 540.271 263.058 540.271 259.076C540.271 255.272 541.103 251.677 542.767 248.289C544.491 244.902 546.898 241.901 549.988 239.285C553.138 236.671 556.912 234.62 561.31 233.134C565.707 231.648 570.61 230.906 576.018 230.906C583.744 230.906 590.342 232.272 595.809 235.006C601.277 237.74 605.466 241.395 608.379 245.972C611.29 250.488 612.747 255.51 612.747 261.037H596.254C596.254 258.363 595.452 255.777 593.848 253.281C592.303 250.726 590.014 248.616 586.984 246.952C584.012 245.288 580.357 244.456 576.018 244.456C571.443 244.456 567.728 245.169 564.875 246.596C562.082 247.962 560.032 249.716 558.725 251.855C557.477 253.995 556.853 256.253 556.853 258.63C556.853 260.413 557.15 262.017 557.744 263.444C558.398 264.811 559.527 266.088 561.131 267.277C562.736 268.406 564.994 269.476 567.906 270.487C570.819 271.497 574.533 272.507 579.049 273.517C586.953 275.3 593.462 277.44 598.572 279.936C603.683 282.432 607.487 285.493 609.983 289.117C612.479 292.743 613.727 297.141 613.727 302.311C613.727 306.531 612.836 310.394 611.053 313.9C609.329 317.407 606.803 320.438 603.475 322.993C600.207 325.489 596.285 327.45 591.708 328.877C587.191 330.243 582.11 330.927 576.464 330.927C567.966 330.927 560.775 329.411 554.891 326.381C549.007 323.35 544.55 319.427 541.519 314.613C538.489 309.799 536.973 304.718 536.973 299.37H553.554C553.792 303.886 555.099 307.482 557.477 310.156C559.853 312.771 562.766 314.643 566.213 315.772C569.66 316.842 573.077 317.377 576.464 317.377C580.981 317.377 584.755 316.783 587.786 315.594C590.876 314.405 593.224 312.771 594.828 310.691C596.433 308.611 597.235 306.234 597.235 303.559Z" fill="#EFE1C0"/>
<path d="M377.335 182.082C377.335 218.897 431.875 296.275 459.145 330.363C486.415 296.275 540.956 218.897 540.956 182.082C540.956 136.064 520.503 95.1582 459.145 95.1582C397.788 95.1582 377.335 136.064 377.335 182.082Z" stroke="#EFE1C0" stroke-width="17.931" stroke-linejoin="round"/>
<mask id="mask0_176_2572" style="mask-type:luminance" maskUnits="userSpaceOnUse" x="415" y="136" width="85" height="85">
<path d="M499.12 178.822C499.12 155.719 480.391 136.989 457.287 136.989C434.184 136.989 415.455 155.719 415.455 178.822C415.455 201.926 434.184 220.655 457.287 220.655C480.391 220.655 499.12 201.926 499.12 178.822ZM435.201 178.822C435.201 166.624 445.089 156.735 457.287 156.735C469.486 156.735 479.375 166.624 479.375 178.822C479.375 191.02 469.486 200.909 457.287 200.909C445.089 200.909 435.201 191.02 435.201 178.822Z" fill="white"/>
</mask>
<g mask="url(#mask0_176_2572)">
<path d="M499.12 178.822C499.12 155.719 480.391 136.989 457.287 136.989C434.184 136.989 415.455 155.719 415.455 178.822C415.455 201.926 434.184 220.655 457.287 220.655C480.391 220.655 499.12 201.926 499.12 178.822ZM435.201 178.822C435.201 166.624 445.089 156.735 457.287 156.735C469.486 156.735 479.375 166.624 479.375 178.822C479.375 191.02 469.486 200.909 457.287 200.909C445.089 200.909 435.201 191.02 435.201 178.822Z" fill="#EFE1C0" stroke="#EFE1C0" stroke-width="20.9157"/>
</g>
<path d="M52.423 363.681C80.678 374.548 93.4583 362.097 136.927 367.313C191.264 373.834 186.916 399.915 254.293 399.915C309.149 399.915 356.446 352.099 393.394 352.099C422.953 352.099 428.169 362.967 452.077 349.926" stroke="#EFE1C0" stroke-width="19.561" stroke-linejoin="round" stroke-dasharray="43.47 43.47"/>
</svg>
