<svg width="96" height="67" viewBox="0 0 96 67" fill="none" xmlns="http://www.w3.org/2000/svg">
<path d="M17.7097 15.4348V51H13.2155V21.0465L4.15414 24.3504V20.2934L17.0052 15.4348H17.7097ZM53.2264 41.4285C53.2264 43.5825 52.7243 45.4126 51.7202 46.9187C50.7323 48.4087 49.3881 49.5424 47.6876 50.3198C46.0032 51.0972 44.1003 51.4859 41.9787 51.4859C39.857 51.4859 37.946 51.0972 36.2455 50.3198C34.5449 49.5424 33.2007 48.4087 32.2128 46.9187C31.2249 45.4126 30.7309 43.5825 30.7309 41.4285C30.7309 40.0195 30.9981 38.7319 31.5326 37.5659C32.0832 36.3836 32.8525 35.3552 33.8404 34.4806C34.8445 33.6061 36.0268 32.934 37.3872 32.4643C38.7639 31.9784 40.2781 31.7355 41.9301 31.7355C44.1003 31.7355 46.0356 32.1566 47.7361 32.9987C49.4367 33.8247 50.7728 34.9665 51.7445 36.4241C52.7324 37.8817 53.2264 39.5498 53.2264 41.4285ZM48.7079 41.3313C48.7079 40.0195 48.4244 38.8615 47.8576 37.8574C47.2908 36.8371 46.4972 36.0435 45.4769 35.4766C44.4566 34.9098 43.2743 34.6264 41.9301 34.6264C40.5535 34.6264 39.3631 34.9098 38.359 35.4766C37.371 36.0435 36.6018 36.8371 36.0511 37.8574C35.5005 38.8615 35.2251 40.0195 35.2251 41.3313C35.2251 42.6917 35.4924 43.8578 36.0268 44.8295C36.5775 45.7851 37.3548 46.522 38.359 47.0402C39.3793 47.5423 40.5858 47.7933 41.9787 47.7933C43.3715 47.7933 44.5699 47.5423 45.574 47.0402C46.5782 46.522 47.3474 45.7851 47.8819 44.8295C48.4325 43.8578 48.7079 42.6917 48.7079 41.3313ZM52.4004 24.8362C52.4004 26.5529 51.947 28.0996 51.04 29.4762C50.1331 30.8528 48.8941 31.9379 47.3232 32.7315C45.7522 33.5251 43.9707 33.9219 41.9787 33.9219C39.9542 33.9219 38.1484 33.5251 36.5613 32.7315C34.9903 31.9379 33.7595 30.8528 32.8687 29.4762C31.978 28.0996 31.5326 26.5529 31.5326 24.8362C31.5326 22.7794 31.978 21.0303 32.8687 19.5889C33.7756 18.1475 35.0146 17.0462 36.5856 16.285C38.1565 15.5238 39.9461 15.1432 41.9544 15.1432C43.9788 15.1432 45.7765 15.5238 47.3474 16.285C48.9184 17.0462 50.1493 18.1475 51.04 19.5889C51.947 21.0303 52.4004 22.7794 52.4004 24.8362ZM47.9062 24.9091C47.9062 23.7268 47.6552 22.6822 47.1531 21.7753C46.651 20.8683 45.9546 20.1557 45.0639 19.6375C44.1731 19.103 43.1366 18.8358 41.9544 18.8358C40.7721 18.8358 39.7356 19.0868 38.8448 19.5889C37.9703 20.0748 37.282 20.7712 36.7799 21.6781C36.294 22.5851 36.0511 23.6621 36.0511 24.9091C36.0511 26.1238 36.294 27.1846 36.7799 28.0915C37.282 28.9985 37.9784 29.703 38.8691 30.205C39.7599 30.7071 40.7964 30.9581 41.9787 30.9581C43.1609 30.9581 44.1893 30.7071 45.0639 30.205C45.9546 29.703 46.651 28.9985 47.1531 28.0915C47.6552 27.1846 47.9062 26.1238 47.9062 24.9091ZM91.1423 47.0956C91.1423 46.7328 91.0606 46.3972 90.8974 46.0889C90.7432 45.7715 90.4212 45.4858 89.9315 45.2318C89.4508 44.9688 88.7252 44.7421 87.7548 44.5516C86.9386 44.3793 86.1994 44.1752 85.5373 43.9394C84.8843 43.7036 84.3266 43.4179 83.864 43.0824C83.4105 42.7468 83.0614 42.3523 82.8165 41.8988C82.5716 41.4453 82.4492 40.9148 82.4492 40.3071C82.4492 39.7267 82.5762 39.178 82.8301 38.661C83.0931 38.144 83.4604 37.686 83.932 37.287C84.4127 36.8879 84.9886 36.575 85.6598 36.3483C86.3309 36.1215 87.0791 36.0082 87.9045 36.0082C89.0835 36.0082 90.0902 36.2168 90.9246 36.634C91.759 37.0512 92.3984 37.6089 92.8428 38.3073C93.2872 38.9966 93.5094 39.7629 93.5094 40.6064H90.9926C90.9926 40.1983 90.8702 39.8037 90.6253 39.4228C90.3895 39.0328 90.0403 38.7109 89.5778 38.4569C89.1243 38.203 88.5665 38.076 87.9045 38.076C87.2061 38.076 86.6393 38.1849 86.2039 38.4025C85.7777 38.6111 85.4648 38.8787 85.2652 39.2052C85.0748 39.5317 84.9796 39.8763 84.9796 40.2391C84.9796 40.5112 85.0249 40.756 85.1156 40.9737C85.2154 41.1823 85.3877 41.3773 85.6326 41.5587C85.8774 41.731 86.2221 41.8943 86.6665 42.0484C87.1109 42.2026 87.6777 42.3568 88.367 42.511C89.5732 42.7831 90.5663 43.1096 91.3463 43.4905C92.1263 43.8714 92.7067 44.3385 93.0877 44.8917C93.4686 45.445 93.659 46.1161 93.659 46.9051C93.659 47.5491 93.523 48.1386 93.2509 48.6737C92.9879 49.2088 92.6024 49.6713 92.0946 50.0613C91.5957 50.4422 90.9971 50.7415 90.2988 50.9592C89.6095 51.1678 88.8341 51.2721 87.9725 51.2721C86.6755 51.2721 85.5781 51.0408 84.6803 50.5783C83.7824 50.1157 83.1022 49.5171 82.6396 48.7825C82.1771 48.0479 81.9458 47.2725 81.9458 46.4562H84.4762C84.5125 47.1455 84.712 47.6942 85.0748 48.1023C85.4376 48.5014 85.882 48.7871 86.408 48.9594C86.934 49.1226 87.4555 49.2042 87.9725 49.2042C88.6618 49.2042 89.2377 49.1136 89.7002 48.9322C90.1718 48.7508 90.5301 48.5014 90.7749 48.1839C91.0198 47.8665 91.1423 47.5037 91.1423 47.0956Z" fill="black"/>
<path d="M57.584 27.7885C57.584 33.4067 65.9072 45.2152 70.0688 50.4172C74.2304 45.2152 82.5536 33.4067 82.5536 27.7885C82.5536 20.7658 79.4324 14.5234 70.0688 14.5234C60.7052 14.5234 57.584 20.7658 57.584 27.7885Z" stroke="#D27431" stroke-width="2.7364" stroke-linejoin="round"/>
<mask id="path-3-inside-1_492_127" fill="white">
<path d="M76.1692 27.2919C76.1692 23.7661 73.311 20.9079 69.7853 20.9079C66.2595 20.9079 63.4014 23.7661 63.4014 27.2919C63.4014 30.8176 66.2595 33.6758 69.7853 33.6758C73.311 33.6758 76.1692 30.8176 76.1692 27.2919ZM66.4146 27.2919C66.4146 25.4303 67.9237 23.9212 69.7853 23.9212C71.6468 23.9212 73.1559 25.4303 73.1559 27.2919C73.1559 29.1534 71.6468 30.6625 69.7853 30.6625C67.9237 30.6625 66.4146 29.1534 66.4146 27.2919Z"/>
</mask>
<path d="M76.1692 27.2919C76.1692 23.7661 73.311 20.9079 69.7853 20.9079C66.2595 20.9079 63.4014 23.7661 63.4014 27.2919C63.4014 30.8176 66.2595 33.6758 69.7853 33.6758C73.311 33.6758 76.1692 30.8176 76.1692 27.2919ZM66.4146 27.2919C66.4146 25.4303 67.9237 23.9212 69.7853 23.9212C71.6468 23.9212 73.1559 25.4303 73.1559 27.2919C73.1559 29.1534 71.6468 30.6625 69.7853 30.6625C67.9237 30.6625 66.4146 29.1534 66.4146 27.2919Z" fill="black" stroke="#D27431" stroke-width="3.19188" mask="url(#path-3-inside-1_492_127)"/>
<path d="M8 55.5013C12.3119 57.1598 14.2623 55.2598 20.896 56.0558C29.188 57.0509 28.5247 61.0311 38.8068 61.0311C47.1781 61.0311 54.396 53.734 60.0346 53.734C64.5455 53.734 65.3415 55.3924 68.99 53.4023" stroke="#D27431" stroke-width="2.98515" stroke-linejoin="round" stroke-dasharray="6.63 6.63"/>
</svg>
